<svg width="40" height="40" viewBox="0 0 40 40" fill="none" xmlns="http://www.w3.org/2000/svg">
  <rect width="40" height="40" rx="8" fill="#22C55E"/>
  <path d="M12 20C12 16.13 15.13 13 19 13C22.87 13 26 16.13 26 20" stroke="white" stroke-width="2" stroke-linecap="round"/>
  <path d="M28 20C28 16.13 31.13 13 35 13" stroke="white" stroke-width="2" stroke-linecap="round"/>
  <path d="M12 20C12 23.87 15.13 27 19 27C22.87 27 26 23.87 26 20" stroke="white" stroke-width="2" stroke-linecap="round"/>
  <path d="M28 20C28 23.87 31.13 27 35 27" stroke="white" stroke-width="2" stroke-linecap="round"/>
  <path d="M8 20C8 16.13 11.13 13 15 13" stroke="white" stroke-width="2" stroke-linecap="round"/>
  <path d="M8 20C8 23.87 11.13 27 15 27" stroke="white" stroke-width="2" stroke-linecap="round"/>
</svg>