<svg width="400" height="300" viewBox="0 0 400 300" fill="none" xmlns="http://www.w3.org/2000/svg">
  <rect width="400" height="300" fill="#F0FDF4"/>
  <circle cx="200" cy="80" r="40" fill="#15803D"/>
  <path d="M160 140H240V220C240 242.091 222.091 260 200 260C177.909 260 160 242.091 160 220V140Z" fill="#22C55E"/>
  <path d="M140 180H120C108.954 180 100 188.954 100 200V220C100 231.046 108.954 240 120 240H140V180Z" fill="#86EFAC"/>
  <path d="M260 180H280C291.046 180 300 188.954 300 200V220C300 231.046 291.046 240 280 240H260V180Z" fill="#86EFAC"/>
</svg>