<svg width="600" height="400" viewBox="0 0 600 400" fill="none" xmlns="http://www.w3.org/2000/svg">
  <rect width="600" height="400" fill="#F0FDF4"/>
  <path d="M100 200C100 144.772 144.772 100 200 100H400C455.228 100 500 144.772 500 200V300C500 355.228 455.228 400 400 400H200C144.772 400 100 355.228 100 300V200Z" fill="#86EFAC"/>
  <circle cx="300" cy="180" r="80" fill="#22C55E"/>
  <path d="M220 230L260 270L380 150" stroke="white" stroke-width="12" stroke-linecap="round" stroke-linejoin="round"/>
  <path d="M450 150H500V100H450V150ZM150 350H100V400H150V350ZM450 350H500V300H450V350ZM150 150H100V200H150V150Z" fill="#15803D"/>
</svg>